<svg xmlns="http://www.w3.org/2000/svg" viewBox="0 0 1814.09 369.19"><defs><style>.cls-1{fill:#273952;}</style></defs><g id="Layer_2" data-name="Layer 2"><g id="Layer_1-2" data-name="Layer 1"><path class="cls-1" d="M115.21,23.18c101.54-39.57,196.22-18.54,247-9,62.7,11.78,187.47,11.85,437,12,251.25.15,297.7-27.38,556-21,165.36,4.08,89.24,14,256,21,115.79,4.89,175.32,1.1,196,38,24.79,44.24-24.91,113.68-31,122-36.9,50.37-88.54,68.15-158,91-58.45,19-70.92,14.68-205,41-97.3,19.1-96.13,22.45-155,32-26.92,4.37-114.22,18.53-199,19-134.41.73-139-33.65-266-42-204.13-13.43-246.91,71.78-365,20-47.95-21-89.07-56.21-169-69-12.4-2-62.15-9.26-95-14-72.93-10.53-79.16-11-91-17-41.22-21-80.68-74.41-72-125C11.25,63.69,80.89,36.55,115.21,23.18Z"/></g></g></svg>